<?xml version="1.0" encoding="UTF-8" standalone="no"?>
<!DOCTYPE svg PUBLIC "-//W3C//DTD SVG 1.1//EN"
 "http://www.w3.org/Graphics/SVG/1.1/DTD/svg11.dtd">
<!-- Generated by graphviz version 2.42.4 (0)
 -->
<!-- Title: G Pages: 1 -->
<svg width="2484pt" height="103pt"
 viewBox="0.00 0.00 2483.80 102.80" xmlns="http://www.w3.org/2000/svg" xmlns:xlink="http://www.w3.org/1999/xlink">
<g id="graph0" class="graph" transform="scale(1 1) rotate(0) translate(14.4 88.4)">
<title>G</title>
<polygon fill="white" stroke="transparent" points="-14.4,14.4 -14.4,-88.4 2469.4,-88.4 2469.4,14.4 -14.4,14.4"/>
<!-- base -->
<g id="node1" class="node">
<title>base</title>
<path fill="none" stroke="black" d="M233,-56C233,-56 12,-56 12,-56 6,-56 0,-50 0,-44 0,-44 0,-12 0,-12 0,-6 6,0 12,0 12,0 233,0 233,0 239,0 245,-6 245,-12 245,-12 245,-44 245,-44 245,-50 239,-56 233,-56"/>
<text text-anchor="middle" x="122.5" y="-42" font-family="DejaVu Sans" font-size="10.00">M001&#45;M197</text>
<text text-anchor="middle" x="122.5" y="-31" font-family="DejaVu Sans" font-size="10.00">source&#45;derived + normalized</text>
<text text-anchor="middle" x="122.5" y="-20" font-family="DejaVu Sans" font-size="10.00">finite grammar, typed state, support,</text>
<text text-anchor="middle" x="122.5" y="-9" font-family="DejaVu Sans" font-size="10.00">compatibility, guard, event, transition, lineage</text>
</g>
<!-- kc2 -->
<g id="node2" class="node">
<title>kc2</title>
<path fill="none" stroke="black" d="M523,-50.5C523,-50.5 300,-50.5 300,-50.5 294,-50.5 288,-44.5 288,-38.5 288,-38.5 288,-17.5 288,-17.5 288,-11.5 294,-5.5 300,-5.5 300,-5.5 523,-5.5 523,-5.5 529,-5.5 535,-11.5 535,-17.5 535,-17.5 535,-38.5 535,-38.5 535,-44.5 529,-50.5 523,-50.5"/>
<text text-anchor="middle" x="411.5" y="-36.5" font-family="DejaVu Sans" font-size="10.00">M198&#45;M257</text>
<text text-anchor="middle" x="411.5" y="-25.5" font-family="DejaVu Sans" font-size="10.00">patterns, implicit fields, topology,</text>
<text text-anchor="middle" x="411.5" y="-14.5" font-family="DejaVu Sans" font-size="10.00">Lie kinematics, frames and bounded dynamics</text>
</g>
<!-- base&#45;&gt;kc2 -->
<g id="edge1" class="edge">
<title>base&#45;&gt;kc2</title>
<path fill="none" stroke="black" d="M245.21,-28C255.87,-28 266.68,-28 277.42,-28"/>
<polygon fill="black" stroke="black" points="277.68,-31.5 287.68,-28 277.68,-24.5 277.68,-31.5"/>
</g>
<!-- kc3 -->
<g id="node3" class="node">
<title>kc3</title>
<path fill="none" stroke="black" d="M846,-56C846,-56 590,-56 590,-56 584,-56 578,-50 578,-44 578,-44 578,-12 578,-12 578,-6 584,0 590,0 590,0 846,0 846,0 852,0 858,-6 858,-12 858,-12 858,-44 858,-44 858,-50 852,-56 846,-56"/>
<text text-anchor="middle" x="718" y="-42" font-family="DejaVu Sans" font-size="10.00">M258&#45;M360</text>
<text text-anchor="middle" x="718" y="-31" font-family="DejaVu Sans" font-size="10.00">jet calculus, constraints/contact,</text>
<text text-anchor="middle" x="718" y="-20" font-family="DejaVu Sans" font-size="10.00">certified hybrid events, persistence,</text>
<text text-anchor="middle" x="718" y="-9" font-family="DejaVu Sans" font-size="10.00">multiscale patterns, geometric dynamics, uncertainty</text>
</g>
<!-- kc2&#45;&gt;kc3 -->
<g id="edge2" class="edge">
<title>kc2&#45;&gt;kc3</title>
<path fill="none" stroke="black" d="M535.04,-28C545.85,-28 556.88,-28 567.88,-28"/>
<polygon fill="black" stroke="black" points="567.98,-31.5 577.98,-28 567.98,-24.5 567.98,-31.5"/>
</g>
<!-- support -->
<g id="node4" class="node">
<title>support</title>
<path fill="none" stroke="black" d="M1040,-46C1040,-46 913,-46 913,-46 907,-46 901,-40 901,-34 901,-34 901,-22 901,-22 901,-16 907,-10 913,-10 913,-10 1040,-10 1040,-10 1046,-10 1052,-16 1052,-22 1052,-22 1052,-34 1052,-34 1052,-40 1046,-46 1040,-46"/>
<text text-anchor="middle" x="976.5" y="-31" font-family="DejaVu Sans" font-size="10.00">local support</text>
<text text-anchor="middle" x="976.5" y="-20" font-family="DejaVu Sans" font-size="10.00">radial&#45;angular / shell / time</text>
</g>
<!-- kc3&#45;&gt;support -->
<g id="edge3" class="edge">
<title>kc3&#45;&gt;support</title>
<path fill="none" stroke="black" d="M858.13,-28C869.29,-28 880.34,-28 890.93,-28"/>
<polygon fill="black" stroke="black" points="890.94,-31.5 900.94,-28 890.94,-24.5 890.94,-31.5"/>
</g>
<!-- compatible -->
<g id="node5" class="node">
<title>compatible</title>
<path fill="none" stroke="black" d="M1267,-46C1267,-46 1107,-46 1107,-46 1101,-46 1095,-40 1095,-34 1095,-34 1095,-22 1095,-22 1095,-16 1101,-10 1107,-10 1107,-10 1267,-10 1267,-10 1273,-10 1279,-16 1279,-22 1279,-22 1279,-34 1279,-34 1279,-40 1273,-46 1267,-46"/>
<text text-anchor="middle" x="1187" y="-31" font-family="DejaVu Sans" font-size="10.00">typed compatibility</text>
<text text-anchor="middle" x="1187" y="-20" font-family="DejaVu Sans" font-size="10.00">phase / sheet / orientation / policy</text>
</g>
<!-- support&#45;&gt;compatible -->
<g id="edge4" class="edge">
<title>support&#45;&gt;compatible</title>
<path fill="none" stroke="black" d="M1052.18,-28C1062.74,-28 1073.74,-28 1084.69,-28"/>
<polygon fill="black" stroke="black" points="1084.73,-31.5 1094.73,-28 1084.73,-24.5 1084.73,-31.5"/>
</g>
<!-- guard -->
<g id="node6" class="node">
<title>guard</title>
<path fill="none" stroke="black" d="M1509,-46C1509,-46 1334,-46 1334,-46 1328,-46 1322,-40 1322,-34 1322,-34 1322,-22 1322,-22 1322,-16 1328,-10 1334,-10 1334,-10 1509,-10 1509,-10 1515,-10 1521,-16 1521,-22 1521,-22 1521,-34 1521,-34 1521,-40 1515,-46 1509,-46"/>
<text text-anchor="middle" x="1421.5" y="-31" font-family="DejaVu Sans" font-size="10.00">guard + certified interval</text>
<text text-anchor="middle" x="1421.5" y="-20" font-family="DejaVu Sans" font-size="10.00">analytic / bracketed / interval / Sturm</text>
</g>
<!-- compatible&#45;&gt;guard -->
<g id="edge5" class="edge">
<title>compatible&#45;&gt;guard</title>
<path fill="none" stroke="black" d="M1279.22,-28C1289.83,-28 1300.72,-28 1311.54,-28"/>
<polygon fill="black" stroke="black" points="1311.86,-31.5 1321.86,-28 1311.86,-24.5 1311.86,-31.5"/>
</g>
<!-- batch -->
<g id="node7" class="node">
<title>batch</title>
<path fill="none" stroke="black" d="M1758,-46C1758,-46 1576,-46 1576,-46 1570,-46 1564,-40 1564,-34 1564,-34 1564,-22 1564,-22 1564,-16 1570,-10 1576,-10 1576,-10 1758,-10 1758,-10 1764,-10 1770,-16 1770,-22 1770,-22 1770,-34 1770,-34 1770,-40 1764,-46 1758,-46"/>
<text text-anchor="middle" x="1667" y="-31" font-family="DejaVu Sans" font-size="10.00">simultaneous event class</text>
<text text-anchor="middle" x="1667" y="-20" font-family="DejaVu Sans" font-size="10.00">priority DAG + atomic transition batch</text>
</g>
<!-- guard&#45;&gt;batch -->
<g id="edge6" class="edge">
<title>guard&#45;&gt;batch</title>
<path fill="none" stroke="black" d="M1521.19,-28C1531.99,-28 1543.04,-28 1553.99,-28"/>
<polygon fill="black" stroke="black" points="1554,-31.5 1564,-28 1554,-24.5 1554,-31.5"/>
</g>
<!-- state -->
<g id="node8" class="node">
<title>state</title>
<path fill="none" stroke="black" d="M1979,-46C1979,-46 1825,-46 1825,-46 1819,-46 1813,-40 1813,-34 1813,-34 1813,-22 1813,-22 1813,-16 1819,-10 1825,-10 1825,-10 1979,-10 1979,-10 1985,-10 1991,-16 1991,-22 1991,-22 1991,-34 1991,-34 1991,-40 1985,-46 1979,-46"/>
<text text-anchor="middle" x="1902" y="-31" font-family="DejaVu Sans" font-size="10.00">post&#45;state</text>
<text text-anchor="middle" x="1902" y="-20" font-family="DejaVu Sans" font-size="10.00">route + topology + contact + jet</text>
</g>
<!-- batch&#45;&gt;state -->
<g id="edge7" class="edge">
<title>batch&#45;&gt;state</title>
<path fill="none" stroke="black" d="M1770.2,-28C1780.95,-28 1791.86,-28 1802.56,-28"/>
<polygon fill="black" stroke="black" points="1802.75,-31.5 1812.75,-28 1802.75,-24.5 1802.75,-31.5"/>
</g>
<!-- log -->
<g id="node9" class="node">
<title>log</title>
<path fill="none" stroke="black" d="M2191,-74C2191,-74 2046,-74 2046,-74 2040,-74 2034,-68 2034,-62 2034,-62 2034,-50 2034,-50 2034,-44 2040,-38 2046,-38 2046,-38 2191,-38 2191,-38 2197,-38 2203,-44 2203,-50 2203,-50 2203,-62 2203,-62 2203,-68 2197,-74 2191,-74"/>
<text text-anchor="middle" x="2118.5" y="-59" font-family="DejaVu Sans" font-size="10.00">lineage + novelty log</text>
<text text-anchor="middle" x="2118.5" y="-48" font-family="DejaVu Sans" font-size="10.00">canonical hash + Merkle chain</text>
</g>
<!-- state&#45;&gt;log -->
<g id="edge8" class="edge">
<title>state&#45;&gt;log</title>
<path fill="none" stroke="black" d="M1991.17,-39.51C2001.86,-40.9 2012.8,-42.33 2023.56,-43.74"/>
<polygon fill="black" stroke="black" points="2023.44,-47.25 2033.81,-45.08 2024.35,-40.31 2023.44,-47.25"/>
</g>
<!-- adapters -->
<g id="node10" class="node">
<title>adapters</title>
<path fill="none" stroke="black" d="M2443,-46C2443,-46 2258,-46 2258,-46 2252,-46 2246,-40 2246,-34 2246,-34 2246,-22 2246,-22 2246,-16 2252,-10 2258,-10 2258,-10 2443,-10 2443,-10 2449,-10 2455,-16 2455,-22 2455,-22 2455,-34 2455,-34 2455,-40 2449,-46 2443,-46"/>
<text text-anchor="middle" x="2350.5" y="-31" font-family="DejaVu Sans" font-size="10.00">optional consumers</text>
<text text-anchor="middle" x="2350.5" y="-20" font-family="DejaVu Sans" font-size="10.00">projection / GPU / hardware / telemetry</text>
</g>
<!-- state&#45;&gt;adapters -->
<g id="edge9" class="edge">
<title>state&#45;&gt;adapters</title>
<path fill="none" stroke="black" stroke-dasharray="5,2" d="M1991.08,-26.47C2005.43,-26.27 2020.13,-26.11 2034,-26 2109.11,-25.43 2127.89,-25.49 2203,-26 2213.61,-26.07 2224.66,-26.17 2235.71,-26.29"/>
<polygon fill="black" stroke="black" points="2235.82,-29.8 2245.86,-26.41 2235.9,-22.8 2235.82,-29.8"/>
</g>
<!-- log&#45;&gt;adapters -->
<g id="edge10" class="edge">
<title>log&#45;&gt;adapters</title>
<path fill="none" stroke="black" stroke-dasharray="5,2" d="M2203.19,-45.81C2213.81,-44.52 2224.81,-43.18 2235.8,-41.84"/>
<polygon fill="black" stroke="black" points="2236.38,-45.3 2245.88,-40.61 2235.53,-38.35 2236.38,-45.3"/>
</g>
</g>
</svg>
