# Four chamber/routing motif approximated as a pinched double cone.
o double_cone_hourglass
v 1.00000000 0.00000000 -1.00000000
v 0.99785892 0.06540313 -1.00000000
v 0.99144486 0.13052619 -1.00000000
v 0.98078528 0.19509032 -1.00000000
v 0.96592583 0.25881905 -1.00000000
v 0.94693013 0.32143947 -1.00000000
v 0.92387953 0.38268343 -1.00000000
v 0.89687274 0.44228869 -1.00000000
v 0.86602540 0.50000000 -1.00000000
v 0.83146961 0.55557023 -1.00000000
v 0.79335334 0.60876143 -1.00000000
v 0.75183981 0.65934582 -1.00000000
v 0.70710678 0.70710678 -1.00000000
v 0.65934582 0.75183981 -1.00000000
v 0.60876143 0.79335334 -1.00000000
v 0.55557023 0.83146961 -1.00000000
v 0.50000000 0.86602540 -1.00000000
v 0.44228869 0.89687274 -1.00000000
v 0.38268343 0.92387953 -1.00000000
v 0.32143947 0.94693013 -1.00000000
v 0.25881905 0.96592583 -1.00000000
v 0.19509032 0.98078528 -1.00000000
v 0.13052619 0.99144486 -1.00000000
v 0.06540313 0.99785892 -1.00000000
v 0.00000000 1.00000000 -1.00000000
v -0.06540313 0.99785892 -1.00000000
v -0.13052619 0.99144486 -1.00000000
v -0.19509032 0.98078528 -1.00000000
v -0.25881905 0.96592583 -1.00000000
v -0.32143947 0.94693013 -1.00000000
v -0.38268343 0.92387953 -1.00000000
v -0.44228869 0.89687274 -1.00000000
v -0.50000000 0.86602540 -1.00000000
v -0.55557023 0.83146961 -1.00000000
v -0.60876143 0.79335334 -1.00000000
v -0.65934582 0.75183981 -1.00000000
v -0.70710678 0.70710678 -1.00000000
v -0.75183981 0.65934582 -1.00000000
v -0.79335334 0.60876143 -1.00000000
v -0.83146961 0.55557023 -1.00000000
v -0.86602540 0.50000000 -1.00000000
v -0.89687274 0.44228869 -1.00000000
v -0.92387953 0.38268343 -1.00000000
v -0.94693013 0.32143947 -1.00000000
v -0.96592583 0.25881905 -1.00000000
v -0.98078528 0.19509032 -1.00000000
v -0.99144486 0.13052619 -1.00000000
v -0.99785892 0.06540313 -1.00000000
v -1.00000000 0.00000000 -1.00000000
v -0.99785892 -0.06540313 -1.00000000
v -0.99144486 -0.13052619 -1.00000000
v -0.98078528 -0.19509032 -1.00000000
v -0.96592583 -0.25881905 -1.00000000
v -0.94693013 -0.32143947 -1.00000000
v -0.92387953 -0.38268343 -1.00000000
v -0.89687274 -0.44228869 -1.00000000
v -0.86602540 -0.50000000 -1.00000000
v -0.83146961 -0.55557023 -1.00000000
v -0.79335334 -0.60876143 -1.00000000
v -0.75183981 -0.65934582 -1.00000000
v -0.70710678 -0.70710678 -1.00000000
v -0.65934582 -0.75183981 -1.00000000
v -0.60876143 -0.79335334 -1.00000000
v -0.55557023 -0.83146961 -1.00000000
v -0.50000000 -0.86602540 -1.00000000
v -0.44228869 -0.89687274 -1.00000000
v -0.38268343 -0.92387953 -1.00000000
v -0.32143947 -0.94693013 -1.00000000
v -0.25881905 -0.96592583 -1.00000000
v -0.19509032 -0.98078528 -1.00000000
v -0.13052619 -0.99144486 -1.00000000
v -0.06540313 -0.99785892 -1.00000000
v -0.00000000 -1.00000000 -1.00000000
v 0.06540313 -0.99785892 -1.00000000
v 0.13052619 -0.99144486 -1.00000000
v 0.19509032 -0.98078528 -1.00000000
v 0.25881905 -0.96592583 -1.00000000
v 0.32143947 -0.94693013 -1.00000000
v 0.38268343 -0.92387953 -1.00000000
v 0.44228869 -0.89687274 -1.00000000
v 0.50000000 -0.86602540 -1.00000000
v 0.55557023 -0.83146961 -1.00000000
v 0.60876143 -0.79335334 -1.00000000
v 0.65934582 -0.75183981 -1.00000000
v 0.70710678 -0.70710678 -1.00000000
v 0.75183981 -0.65934582 -1.00000000
v 0.79335334 -0.60876143 -1.00000000
v 0.83146961 -0.55557023 -1.00000000
v 0.86602540 -0.50000000 -1.00000000
v 0.89687274 -0.44228869 -1.00000000
v 0.92387953 -0.38268343 -1.00000000
v 0.94693013 -0.32143947 -1.00000000
v 0.96592583 -0.25881905 -1.00000000
v 0.98078528 -0.19509032 -1.00000000
v 0.99144486 -0.13052619 -1.00000000
v 0.99785892 -0.06540313 -1.00000000
v 0.08000000 0.00000000 0.00000000
v 0.07982871 0.00523225 0.00000000
v 0.07931559 0.01044210 0.00000000
v 0.07846282 0.01560723 0.00000000
v 0.07727407 0.02070552 0.00000000
v 0.07575441 0.02571516 0.00000000
v 0.07391036 0.03061467 0.00000000
v 0.07174982 0.03538310 0.00000000
v 0.06928203 0.04000000 0.00000000
v 0.06651757 0.04444562 0.00000000
v 0.06346827 0.04870091 0.00000000
v 0.06014718 0.05274767 0.00000000
v 0.05656854 0.05656854 0.00000000
v 0.05274767 0.06014718 0.00000000
v 0.04870091 0.06346827 0.00000000
v 0.04444562 0.06651757 0.00000000
v 0.04000000 0.06928203 0.00000000
v 0.03538310 0.07174982 0.00000000
v 0.03061467 0.07391036 0.00000000
v 0.02571516 0.07575441 0.00000000
v 0.02070552 0.07727407 0.00000000
v 0.01560723 0.07846282 0.00000000
v 0.01044210 0.07931559 0.00000000
v 0.00523225 0.07982871 0.00000000
v 0.00000000 0.08000000 0.00000000
v -0.00523225 0.07982871 0.00000000
v -0.01044210 0.07931559 0.00000000
v -0.01560723 0.07846282 0.00000000
v -0.02070552 0.07727407 0.00000000
v -0.02571516 0.07575441 0.00000000
v -0.03061467 0.07391036 0.00000000
v -0.03538310 0.07174982 0.00000000
v -0.04000000 0.06928203 0.00000000
v -0.04444562 0.06651757 0.00000000
v -0.04870091 0.06346827 0.00000000
v -0.05274767 0.06014718 0.00000000
v -0.05656854 0.05656854 0.00000000
v -0.06014718 0.05274767 0.00000000
v -0.06346827 0.04870091 0.00000000
v -0.06651757 0.04444562 0.00000000
v -0.06928203 0.04000000 0.00000000
v -0.07174982 0.03538310 0.00000000
v -0.07391036 0.03061467 0.00000000
v -0.07575441 0.02571516 0.00000000
v -0.07727407 0.02070552 0.00000000
v -0.07846282 0.01560723 0.00000000
v -0.07931559 0.01044210 0.00000000
v -0.07982871 0.00523225 0.00000000
v -0.08000000 0.00000000 0.00000000
v -0.07982871 -0.00523225 0.00000000
v -0.07931559 -0.01044210 0.00000000
v -0.07846282 -0.01560723 0.00000000
v -0.07727407 -0.02070552 0.00000000
v -0.07575441 -0.02571516 0.00000000
v -0.07391036 -0.03061467 0.00000000
v -0.07174982 -0.03538310 0.00000000
v -0.06928203 -0.04000000 0.00000000
v -0.06651757 -0.04444562 0.00000000
v -0.06346827 -0.04870091 0.00000000
v -0.06014718 -0.05274767 0.00000000
v -0.05656854 -0.05656854 0.00000000
v -0.05274767 -0.06014718 0.00000000
v -0.04870091 -0.06346827 0.00000000
v -0.04444562 -0.06651757 0.00000000
v -0.04000000 -0.06928203 0.00000000
v -0.03538310 -0.07174982 0.00000000
v -0.03061467 -0.07391036 0.00000000
v -0.02571516 -0.07575441 0.00000000
v -0.02070552 -0.07727407 0.00000000
v -0.01560723 -0.07846282 0.00000000
v -0.01044210 -0.07931559 0.00000000
v -0.00523225 -0.07982871 0.00000000
v -0.00000000 -0.08000000 0.00000000
v 0.00523225 -0.07982871 0.00000000
v 0.01044210 -0.07931559 0.00000000
v 0.01560723 -0.07846282 0.00000000
v 0.02070552 -0.07727407 0.00000000
v 0.02571516 -0.07575441 0.00000000
v 0.03061467 -0.07391036 0.00000000
v 0.03538310 -0.07174982 0.00000000
v 0.04000000 -0.06928203 0.00000000
v 0.04444562 -0.06651757 0.00000000
v 0.04870091 -0.06346827 0.00000000
v 0.05274767 -0.06014718 0.00000000
v 0.05656854 -0.05656854 0.00000000
v 0.06014718 -0.05274767 0.00000000
v 0.06346827 -0.04870091 0.00000000
v 0.06651757 -0.04444562 0.00000000
v 0.06928203 -0.04000000 0.00000000
v 0.07174982 -0.03538310 0.00000000
v 0.07391036 -0.03061467 0.00000000
v 0.07575441 -0.02571516 0.00000000
v 0.07727407 -0.02070552 0.00000000
v 0.07846282 -0.01560723 0.00000000
v 0.07931559 -0.01044210 0.00000000
v 0.07982871 -0.00523225 0.00000000
v 1.00000000 0.00000000 1.00000000
v 0.99785892 0.06540313 1.00000000
v 0.99144486 0.13052619 1.00000000
v 0.98078528 0.19509032 1.00000000
v 0.96592583 0.25881905 1.00000000
v 0.94693013 0.32143947 1.00000000
v 0.92387953 0.38268343 1.00000000
v 0.89687274 0.44228869 1.00000000
v 0.86602540 0.50000000 1.00000000
v 0.83146961 0.55557023 1.00000000
v 0.79335334 0.60876143 1.00000000
v 0.75183981 0.65934582 1.00000000
v 0.70710678 0.70710678 1.00000000
v 0.65934582 0.75183981 1.00000000
v 0.60876143 0.79335334 1.00000000
v 0.55557023 0.83146961 1.00000000
v 0.50000000 0.86602540 1.00000000
v 0.44228869 0.89687274 1.00000000
v 0.38268343 0.92387953 1.00000000
v 0.32143947 0.94693013 1.00000000
v 0.25881905 0.96592583 1.00000000
v 0.19509032 0.98078528 1.00000000
v 0.13052619 0.99144486 1.00000000
v 0.06540313 0.99785892 1.00000000
v 0.00000000 1.00000000 1.00000000
v -0.06540313 0.99785892 1.00000000
v -0.13052619 0.99144486 1.00000000
v -0.19509032 0.98078528 1.00000000
v -0.25881905 0.96592583 1.00000000
v -0.32143947 0.94693013 1.00000000
v -0.38268343 0.92387953 1.00000000
v -0.44228869 0.89687274 1.00000000
v -0.50000000 0.86602540 1.00000000
v -0.55557023 0.83146961 1.00000000
v -0.60876143 0.79335334 1.00000000
v -0.65934582 0.75183981 1.00000000
v -0.70710678 0.70710678 1.00000000
v -0.75183981 0.65934582 1.00000000
v -0.79335334 0.60876143 1.00000000
v -0.83146961 0.55557023 1.00000000
v -0.86602540 0.50000000 1.00000000
v -0.89687274 0.44228869 1.00000000
v -0.92387953 0.38268343 1.00000000
v -0.94693013 0.32143947 1.00000000
v -0.96592583 0.25881905 1.00000000
v -0.98078528 0.19509032 1.00000000
v -0.99144486 0.13052619 1.00000000
v -0.99785892 0.06540313 1.00000000
v -1.00000000 0.00000000 1.00000000
v -0.99785892 -0.06540313 1.00000000
v -0.99144486 -0.13052619 1.00000000
v -0.98078528 -0.19509032 1.00000000
v -0.96592583 -0.25881905 1.00000000
v -0.94693013 -0.32143947 1.00000000
v -0.92387953 -0.38268343 1.00000000
v -0.89687274 -0.44228869 1.00000000
v -0.86602540 -0.50000000 1.00000000
v -0.83146961 -0.55557023 1.00000000
v -0.79335334 -0.60876143 1.00000000
v -0.75183981 -0.65934582 1.00000000
v -0.70710678 -0.70710678 1.00000000
v -0.65934582 -0.75183981 1.00000000
v -0.60876143 -0.79335334 1.00000000
v -0.55557023 -0.83146961 1.00000000
v -0.50000000 -0.86602540 1.00000000
v -0.44228869 -0.89687274 1.00000000
v -0.38268343 -0.92387953 1.00000000
v -0.32143947 -0.94693013 1.00000000
v -0.25881905 -0.96592583 1.00000000
v -0.19509032 -0.98078528 1.00000000
v -0.13052619 -0.99144486 1.00000000
v -0.06540313 -0.99785892 1.00000000
v -0.00000000 -1.00000000 1.00000000
v 0.06540313 -0.99785892 1.00000000
v 0.13052619 -0.99144486 1.00000000
v 0.19509032 -0.98078528 1.00000000
v 0.25881905 -0.96592583 1.00000000
v 0.32143947 -0.94693013 1.00000000
v 0.38268343 -0.92387953 1.00000000
v 0.44228869 -0.89687274 1.00000000
v 0.50000000 -0.86602540 1.00000000
v 0.55557023 -0.83146961 1.00000000
v 0.60876143 -0.79335334 1.00000000
v 0.65934582 -0.75183981 1.00000000
v 0.70710678 -0.70710678 1.00000000
v 0.75183981 -0.65934582 1.00000000
v 0.79335334 -0.60876143 1.00000000
v 0.83146961 -0.55557023 1.00000000
v 0.86602540 -0.50000000 1.00000000
v 0.89687274 -0.44228869 1.00000000
v 0.92387953 -0.38268343 1.00000000
v 0.94693013 -0.32143947 1.00000000
v 0.96592583 -0.25881905 1.00000000
v 0.98078528 -0.19509032 1.00000000
v 0.99144486 -0.13052619 1.00000000
v 0.99785892 -0.06540313 1.00000000
f 1 2 98 97
f 2 3 99 98
f 3 4 100 99
f 4 5 101 100
f 5 6 102 101
f 6 7 103 102
f 7 8 104 103
f 8 9 105 104
f 9 10 106 105
f 10 11 107 106
f 11 12 108 107
f 12 13 109 108
f 13 14 110 109
f 14 15 111 110
f 15 16 112 111
f 16 17 113 112
f 17 18 114 113
f 18 19 115 114
f 19 20 116 115
f 20 21 117 116
f 21 22 118 117
f 22 23 119 118
f 23 24 120 119
f 24 25 121 120
f 25 26 122 121
f 26 27 123 122
f 27 28 124 123
f 28 29 125 124
f 29 30 126 125
f 30 31 127 126
f 31 32 128 127
f 32 33 129 128
f 33 34 130 129
f 34 35 131 130
f 35 36 132 131
f 36 37 133 132
f 37 38 134 133
f 38 39 135 134
f 39 40 136 135
f 40 41 137 136
f 41 42 138 137
f 42 43 139 138
f 43 44 140 139
f 44 45 141 140
f 45 46 142 141
f 46 47 143 142
f 47 48 144 143
f 48 49 145 144
f 49 50 146 145
f 50 51 147 146
f 51 52 148 147
f 52 53 149 148
f 53 54 150 149
f 54 55 151 150
f 55 56 152 151
f 56 57 153 152
f 57 58 154 153
f 58 59 155 154
f 59 60 156 155
f 60 61 157 156
f 61 62 158 157
f 62 63 159 158
f 63 64 160 159
f 64 65 161 160
f 65 66 162 161
f 66 67 163 162
f 67 68 164 163
f 68 69 165 164
f 69 70 166 165
f 70 71 167 166
f 71 72 168 167
f 72 73 169 168
f 73 74 170 169
f 74 75 171 170
f 75 76 172 171
f 76 77 173 172
f 77 78 174 173
f 78 79 175 174
f 79 80 176 175
f 80 81 177 176
f 81 82 178 177
f 82 83 179 178
f 83 84 180 179
f 84 85 181 180
f 85 86 182 181
f 86 87 183 182
f 87 88 184 183
f 88 89 185 184
f 89 90 186 185
f 90 91 187 186
f 91 92 188 187
f 92 93 189 188
f 93 94 190 189
f 94 95 191 190
f 95 96 192 191
f 96 1 97 192
f 97 98 194 193
f 98 99 195 194
f 99 100 196 195
f 100 101 197 196
f 101 102 198 197
f 102 103 199 198
f 103 104 200 199
f 104 105 201 200
f 105 106 202 201
f 106 107 203 202
f 107 108 204 203
f 108 109 205 204
f 109 110 206 205
f 110 111 207 206
f 111 112 208 207
f 112 113 209 208
f 113 114 210 209
f 114 115 211 210
f 115 116 212 211
f 116 117 213 212
f 117 118 214 213
f 118 119 215 214
f 119 120 216 215
f 120 121 217 216
f 121 122 218 217
f 122 123 219 218
f 123 124 220 219
f 124 125 221 220
f 125 126 222 221
f 126 127 223 222
f 127 128 224 223
f 128 129 225 224
f 129 130 226 225
f 130 131 227 226
f 131 132 228 227
f 132 133 229 228
f 133 134 230 229
f 134 135 231 230
f 135 136 232 231
f 136 137 233 232
f 137 138 234 233
f 138 139 235 234
f 139 140 236 235
f 140 141 237 236
f 141 142 238 237
f 142 143 239 238
f 143 144 240 239
f 144 145 241 240
f 145 146 242 241
f 146 147 243 242
f 147 148 244 243
f 148 149 245 244
f 149 150 246 245
f 150 151 247 246
f 151 152 248 247
f 152 153 249 248
f 153 154 250 249
f 154 155 251 250
f 155 156 252 251
f 156 157 253 252
f 157 158 254 253
f 158 159 255 254
f 159 160 256 255
f 160 161 257 256
f 161 162 258 257
f 162 163 259 258
f 163 164 260 259
f 164 165 261 260
f 165 166 262 261
f 166 167 263 262
f 167 168 264 263
f 168 169 265 264
f 169 170 266 265
f 170 171 267 266
f 171 172 268 267
f 172 173 269 268
f 173 174 270 269
f 174 175 271 270
f 175 176 272 271
f 176 177 273 272
f 177 178 274 273
f 178 179 275 274
f 179 180 276 275
f 180 181 277 276
f 181 182 278 277
f 182 183 279 278
f 183 184 280 279
f 184 185 281 280
f 185 186 282 281
f 186 187 283 282
f 187 188 284 283
f 188 189 285 284
f 189 190 286 285
f 190 191 287 286
f 191 192 288 287
f 192 97 193 288
